<?xml version="1.0" encoding="UTF-8" standalone="no"?>
<!-- Created with Inkscape (http://www.inkscape.org/) -->

<svg
   version="1.1"
   id="svg1001"
   width="880"
   height="880"
   viewBox="0 0 880 880"
   sodipodi:docname="circus-clown-vector-publicdomain.svg"
   inkscape:version="1.2 (dc2aedaf03, 2022-05-15)"
   xmlns:inkscape="http://www.inkscape.org/namespaces/inkscape"
   xmlns:sodipodi="http://sodipodi.sourceforge.net/DTD/sodipodi-0.dtd"
   xmlns="http://www.w3.org/2000/svg"
   xmlns:svg="http://www.w3.org/2000/svg">
  <defs
     id="defs1005">
    <clipPath
       clipPathUnits="userSpaceOnUse"
       id="clipPath1019">
      <path
         d="M 0,660 H 660 V 0 H 0 Z"
         id="path1017" />
    </clipPath>
  </defs>
  <sodipodi:namedview
     id="namedview1003"
     pagecolor="#ffffff"
     bordercolor="#000000"
     borderopacity="0.25"
     inkscape:showpageshadow="2"
     inkscape:pageopacity="0.0"
     inkscape:pagecheckerboard="0"
     inkscape:deskcolor="#d1d1d1"
     showgrid="false"
     inkscape:zoom="0.95113636"
     inkscape:cx="441.05137"
     inkscape:cy="440.52569"
     inkscape:window-width="1920"
     inkscape:window-height="1017"
     inkscape:window-x="-8"
     inkscape:window-y="-8"
     inkscape:window-maximized="1"
     inkscape:current-layer="g1009">
    <inkscape:page
       x="0"
       y="0"
       id="page1007"
       width="880"
       height="880" />
  </sodipodi:namedview>
  <g
     id="g1009"
     inkscape:groupmode="layer"
     inkscape:label="Page 1"
     transform="matrix(1.3333333,0,0,-1.3333333,0,880)">
    <path
       d="M 0,0.037 H 659.963 V 660 H 0 Z"
       style="fill:#c9c3b7;fill-opacity:1;fill-rule:nonzero;stroke:none"
       id="path1011" />
    <g
       id="g1013">
      <g
         id="g1015"
         clip-path="url(#clipPath1019)">
        <g
           id="g1021"
           transform="translate(546.001,226.4297)">
          <path
             d="m 0,0 c -8.097,-4.521 -16.461,-8.786 -25.365,-11.467 l -1.647,-0.397 c -2.252,-0.468 -3.198,-0.53 -5.303,0.256 -8.048,5.918 -4.341,26.447 -4.857,35.909 -0.3,5.493 -0.31,18.621 -6.732,20.547 -4.078,1.222 -9.372,0.983 -10.081,-4.28 -0.681,-5.069 -0.689,-9.393 -1.602,-14.738 -1.42,-8.325 -3.123,-16.822 -4.833,-25.096 -0.518,-2.497 -1.018,-4.986 -1.499,-7.491 -1.62,-8.449 -3.555,-17.96 -5.639,-26.278 -3.128,-12.492 -13.419,-25.522 -23.575,-33.263 5.504,-30.743 21.943,-50.993 47.727,-62.273 1.848,7.529 4.331,14.583 6.203,18.397 4.974,10.129 14.218,21.455 25.664,24.185 23.602,4.499 28.342,8.032 53.95,4.66 8.825,-1.163 32.029,-5.464 38.967,0.495 3.486,4.504 -5.56,9.447 -9.78,10.059 -9.812,0.941 -11.06,-0.948 -22.057,2.561 -2.629,0.838 -24.165,6.9 -22.939,10.002 1.368,3.466 23.421,3.278 27.651,3.965 l 4.226,0.685 c 6.112,1.217 10.966,2.08 17.119,3.13 7.267,1.241 14.929,2.834 14.145,11.609 -0.52,2.572 -1.655,3.367 -3.786,4.452 -4.859,1.472 -15.787,-2.342 -22.469,-2.58 -3.786,-0.134 -35.562,-0.76 -36.268,2.184 1.487,3.596 22.488,12.542 26.768,14.648 9.912,4.895 12.711,6.151 23.315,9.522 14.019,4.453 9.354,14.192 0.176,13.455 -9.348,-0.75 -22.58,-10.014 -32.804,-13.781 -17.812,-6.56 -34.904,-7.723 -11.388,10.995 8.279,6.59 13.273,10.726 22.28,16.367 4.861,3.043 12.189,8.805 6.137,14.704 C 55.195,37.481 38.601,22.108 32.168,18.054 23.803,12.78 14.143,8.081 5.437,3.089 3.631,2.042 1.818,1.02 0,0"
             style="fill:#ffffff;fill-opacity:1;fill-rule:evenodd;stroke:none"
             id="path1023" />
        </g>
        <g
           id="g1025"
           transform="translate(323.333,496.3535)">
          <path
             d="m 0,0 c 58.78,0 106.432,-47.651 106.432,-106.432 0,-23.111 -9.755,-60.852 -17.851,-91.128 -5.41,-20.229 -14.054,-36.48 -27.804,-52.274 l -8.125,-9.335 c -10.716,-12.309 -24.757,-18.711 -41.078,-18.729 -7.177,-0.01 -14.983,-0.011 -22.181,-0.005 -16.325,0.014 -30.372,6.419 -41.093,18.731 l -8.311,9.546 c -13.597,15.62 -22.179,31.657 -27.631,51.635 -8.269,30.306 -18.79,69.882 -18.79,91.559 C -106.432,-47.651 -58.78,0 0,0"
             style="fill:#ffffff;fill-opacity:1;fill-rule:evenodd;stroke:none"
             id="path1027" />
        </g>
        <g
           id="g1029"
           transform="translate(323.333,281.1709)">
          <path
             d="m 0,0 c -11.498,9.326 -22.997,5.603 -34.495,4.948 l 0.003,0.16 c 0,4.485 -3.309,8.119 -7.391,8.119 -4.082,0 -7.391,-3.634 -7.391,-8.119 0,-4.481 3.309,-8.115 7.391,-8.115 0.966,0 1.891,0.203 2.735,0.573 7.745,-18.387 20.321,-32.287 39.148,-27.61 18.828,-4.677 31.403,9.223 39.147,27.61 0.845,-0.37 1.771,-0.573 2.737,-0.573 4.083,0 7.392,3.634 7.392,8.115 0,4.485 -3.309,8.119 -7.392,8.119 -4.082,0 -7.392,-3.634 -7.392,-8.119 l 0.004,-0.16 C 22.998,5.603 11.498,9.326 0,0"
             style="fill:#990000;fill-opacity:1;fill-rule:evenodd;stroke:none"
             id="path1031" />
        </g>
        <g
           id="g1033"
           transform="translate(294.7998,277.124)">
          <path
             d="M 0,0 C 8.981,-21.209 47.721,-21.27 57.068,0 41.628,-4.829 14.344,-6.026 0,0"
             style="fill:#ffffff;fill-opacity:1;fill-rule:evenodd;stroke:none"
             id="path1035" />
        </g>
        <g
           id="g1037"
           transform="translate(303.7227,367.5391)">
          <path
             d="M 0,0 C -17.736,-22.692 -41.699,-19.365 -56.945,0 -42.768,19.435 -13.466,20.724 0,0"
             style="fill:#333333;fill-opacity:1;fill-rule:evenodd;stroke:none"
             id="path1039" />
        </g>
        <g
           id="g1041"
           transform="translate(300.3403,367.4258)">
          <path
             d="M 0,0 C -13.945,-15.688 -32.787,-13.387 -44.773,0 -33.626,13.435 -10.587,14.327 0,0"
             style="fill:#ffffff;fill-opacity:1;fill-rule:evenodd;stroke:none"
             id="path1043" />
        </g>
        <g
           id="g1045"
           transform="translate(265.8452,375.1382)">
          <path
             d="m 0,0 c 7.205,3.214 15.639,3.606 22.904,0.913 0.646,-1.491 1.003,-3.136 1.003,-4.865 0,-6.781 -5.497,-12.278 -12.279,-12.278 -6.78,0 -12.277,5.497 -12.277,12.278 0,1.383 0.228,2.712 0.649,3.952"
             style="fill:#2da3ca;fill-opacity:1;fill-rule:evenodd;stroke:none"
             id="path1047" />
        </g>
        <g
           id="g1049"
           transform="translate(277.4756,366.8276)">
          <path
             d="M 0,0 C 2.4,0 4.359,1.958 4.359,4.359 4.359,6.761 2.4,8.719 0,8.719 -2.402,8.719 -4.361,6.761 -4.361,4.359 -4.361,1.958 -2.402,0 0,0"
             style="fill:#333333;fill-opacity:1;fill-rule:evenodd;stroke:none"
             id="path1051" />
        </g>
        <g
           id="g1053"
           transform="translate(282.1465,368.4785)">
          <path
             d="M 0,0 C 1.272,0 2.309,1.038 2.309,2.309 2.309,3.581 1.272,4.618 0,4.618 -1.272,4.618 -2.311,3.581 -2.311,2.309 -2.311,1.038 -1.272,0 0,0"
             style="fill:#ffffff;fill-opacity:1;fill-rule:evenodd;stroke:none"
             id="path1055" />
        </g>
        <g
           id="g1057"
           transform="translate(290.644,401.6318)">
          <path
             d="m 0,0 c -10.114,2.307 -20.648,-0.901 -30.425,-5.11 -6.118,-2.633 -11.285,-8.72 -13.941,-18.04 4.167,6.614 10.165,10.123 16.154,11.725 9.406,2.519 18.882,5.376 28.432,4.21 C 7.747,-8.134 7.763,-1.77 0,0"
             style="fill:#333333;fill-opacity:1;fill-rule:evenodd;stroke:none"
             id="path1059" />
        </g>
        <g
           id="g1061"
           transform="translate(342.9443,367.5391)">
          <path
             d="M 0,0 C 17.736,-22.692 41.698,-19.365 56.945,0 42.768,19.435 13.466,20.724 0,0"
             style="fill:#333333;fill-opacity:1;fill-rule:evenodd;stroke:none"
             id="path1063" />
        </g>
        <g
           id="g1065"
           transform="translate(346.3262,367.4258)">
          <path
             d="M 0,0 C 13.945,-15.688 32.787,-13.387 44.773,0 33.627,13.435 10.589,14.327 0,0"
             style="fill:#ffffff;fill-opacity:1;fill-rule:evenodd;stroke:none"
             id="path1067" />
        </g>
        <g
           id="g1069"
           transform="translate(380.8213,375.1382)">
          <path
             d="m 0,0 c -7.203,3.214 -15.64,3.606 -22.904,0.913 -0.645,-1.491 -1.002,-3.136 -1.002,-4.865 0,-6.781 5.496,-12.278 12.277,-12.278 6.781,0 12.278,5.497 12.278,12.278 C 0.649,-2.569 0.421,-1.24 0,0"
             style="fill:#2da3ca;fill-opacity:1;fill-rule:evenodd;stroke:none"
             id="path1071" />
        </g>
        <g
           id="g1073"
           transform="translate(369.1924,366.8276)">
          <path
             d="m 0,0 c 2.402,0 4.361,1.958 4.361,4.359 0,2.402 -1.959,4.36 -4.361,4.36 -2.401,0 -4.36,-1.958 -4.36,-4.36 C -4.36,1.958 -2.401,0 0,0"
             style="fill:#333333;fill-opacity:1;fill-rule:evenodd;stroke:none"
             id="path1075" />
        </g>
        <g
           id="g1077"
           transform="translate(364.5215,368.4785)">
          <path
             d="M 0,0 C 1.272,0 2.309,1.038 2.309,2.309 2.309,3.581 1.272,4.618 0,4.618 -1.271,4.618 -2.309,3.581 -2.309,2.309 -2.309,1.038 -1.271,0 0,0"
             style="fill:#ffffff;fill-opacity:1;fill-rule:evenodd;stroke:none"
             id="path1079" />
        </g>
        <g
           id="g1081"
           transform="translate(356.0244,401.6318)">
          <path
             d="m 0,0 c 10.112,2.307 20.648,-0.901 30.423,-5.11 6.118,-2.633 11.285,-8.72 13.94,-18.04 C 40.197,-16.536 34.2,-13.027 28.21,-11.425 18.804,-8.906 9.328,-6.049 -0.223,-7.215 -7.749,-8.134 -7.765,-1.77 0,0"
             style="fill:#333333;fill-opacity:1;fill-rule:evenodd;stroke:none"
             id="path1083" />
        </g>
        <g
           id="g1085"
           transform="translate(323.335,299.7256)">
          <path
             d="M 0,0 C 20.202,0 36.678,16.477 36.678,36.68 36.678,56.883 20.202,73.36 0,73.36 -20.204,73.36 -36.681,56.883 -36.681,36.68 -36.681,16.477 -20.204,0 0,0"
             style="fill:#cc3300;fill-opacity:1;fill-rule:evenodd;stroke:none"
             id="path1087" />
        </g>
        <g
           id="g1089"
           transform="translate(253.1118,337.8911)">
          <path
             d="m 0,0 c -8.832,0 -14.502,-11.224 -12.665,-25.071 1.838,-13.846 10.484,-25.071 19.315,-25.071 8.832,0 14.502,11.225 12.664,25.071 C 17.48,-11.224 8.832,0 0,0 m 140.443,0 c 8.832,0 14.502,-11.224 12.664,-25.071 -1.836,-13.846 -10.484,-25.071 -19.315,-25.071 -8.831,0 -14.502,11.225 -12.664,25.071 C 122.964,-11.224 131.612,0 140.443,0"
             style="fill:#ff9999;fill-opacity:1;fill-rule:evenodd;stroke:none"
             id="path1091" />
        </g>
        <g
           id="g1093"
           transform="translate(317.02,369.1465)">
          <path
             d="m 0,0 c 13.101,0 22.369,-10.621 20.702,-23.722 -1.668,-13.1 -13.64,-23.72 -26.741,-23.72 -13.101,0 -22.369,10.62 -20.701,23.72 C -25.073,-10.621 -13.101,0 0,0"
             style="fill:#e6440e;fill-opacity:1;fill-rule:evenodd;stroke:none"
             id="path1095" />
        </g>
        <g
           id="g1097"
           transform="translate(452.6143,355.6206)">
          <path
             d="M 0,0 C 25.816,0 46.874,21.056 46.874,46.873 46.874,72.69 25.816,93.746 0,93.746 -25.816,93.746 -46.873,72.69 -46.873,46.873 -46.873,21.056 -25.816,0 0,0"
             style="fill:#4d9ceb;fill-opacity:1;fill-rule:evenodd;stroke:none"
             id="path1099" />
        </g>
        <g
           id="g1101"
           transform="translate(421.3467,417.5273)">
          <path
             d="m 0,0 c 32.787,0 59.53,26.742 59.53,59.529 0,32.788 -26.743,59.53 -59.53,59.53 -32.787,0 -59.529,-26.742 -59.529,-59.53 C -59.529,26.742 -32.787,0 0,0"
             style="fill:#94ab13;fill-opacity:1;fill-rule:evenodd;stroke:none"
             id="path1103" />
        </g>
        <g
           id="g1105"
           transform="translate(193.5923,355.6206)">
          <path
             d="M 0,0 C 25.816,0 46.874,21.056 46.874,46.873 46.874,72.69 25.816,93.746 0,93.746 -25.817,93.746 -46.873,72.69 -46.873,46.873 -46.873,21.056 -25.817,0 0,0"
             style="fill:#ed440c;fill-opacity:1;fill-rule:evenodd;stroke:none"
             id="path1107" />
        </g>
        <g
           id="g1109"
           transform="translate(224.8599,417.5273)">
          <path
             d="m 0,0 c 32.787,0 59.529,26.742 59.529,59.529 0,32.788 -26.742,59.53 -59.529,59.53 -32.787,0 -59.529,-26.742 -59.529,-59.53 C -59.529,26.742 -32.787,0 0,0"
             style="fill:#cc3399;fill-opacity:1;fill-rule:evenodd;stroke:none"
             id="path1111" />
        </g>
        <g
           id="g1113"
           transform="translate(323.335,433.9478)">
          <path
             d="m 0,0 c 44.378,0 80.574,36.196 80.574,80.576 0,44.379 -36.196,80.576 -80.574,80.576 -44.381,0 -80.577,-36.197 -80.577,-80.576 C -80.577,36.196 -44.381,0 0,0"
             style="fill:#ff9100;fill-opacity:1;fill-rule:evenodd;stroke:none"
             id="path1115" />
        </g>
        <g
           id="g1117"
           transform="translate(197.1914,224.6797)">
          <path
             d="M 0,0 C 34.068,5.566 85.625,-19.122 113.864,-39.389 95.536,-48.379 77.205,-57.37 58.875,-66.362 40.352,-49.568 21.827,-32.775 3.303,-15.982 2.202,-10.654 1.1,-5.326 0,0"
             style="fill:#c9201a;fill-opacity:1;fill-rule:evenodd;stroke:none"
             id="path1119" />
        </g>
        <g
           id="g1121"
           transform="translate(311.0552,185.291)">
          <path
             d="m 0,0 c -51.628,-1.097 -106.541,16.604 -113.864,39.389 2.949,-44.934 16.352,-80.272 40.029,-106.177 25.58,-1.248 43.39,11.42 60.623,25.116 C -8.808,-27.78 -4.403,-13.89 0,0"
             style="fill:#f2322a;fill-opacity:1;fill-rule:evenodd;stroke:none"
             id="path1123" />
        </g>
        <g
           id="g1125"
           transform="translate(311.0552,185.293)">
          <path
             d="m 0,0 c -32.232,-0.686 -65.744,5.957 -88.157,16.588 10.717,-10.621 23.448,-18.994 38.709,-24.54 7.715,-2.802 13.06,-8.751 15.025,-16.718 1.965,-7.968 0,-15.72 -5.523,-21.788 -7.759,-8.521 -19.769,-14.945 -33.889,-20.332 25.58,-1.248 43.39,11.42 60.623,25.116 C -8.808,-27.782 -4.403,-13.892 0,0"
             style="fill:#e0231d;fill-opacity:1;fill-rule:evenodd;stroke:none"
             id="path1127" />
        </g>
        <g
           id="g1129"
           transform="translate(449.0146,224.6797)">
          <path
             d="m 0,0 c -34.068,5.566 -85.625,-19.122 -113.863,-39.389 18.328,-8.99 36.659,-17.981 54.988,-26.973 18.523,16.794 37.049,33.587 55.572,50.38 C -2.201,-10.654 -1.1,-5.326 0,0"
             style="fill:#c9201a;fill-opacity:1;fill-rule:evenodd;stroke:none"
             id="path1131" />
        </g>
        <g
           id="g1133"
           transform="translate(335.1514,185.291)">
          <path
             d="M 0,0 C 51.627,-1.097 106.54,16.604 113.863,39.389 110.915,-5.545 97.512,-40.883 73.837,-66.788 48.255,-68.036 30.445,-55.368 13.212,-41.672 8.808,-27.78 4.403,-13.89 0,0"
             style="fill:#f2322a;fill-opacity:1;fill-rule:evenodd;stroke:none"
             id="path1135" />
        </g>
        <g
           id="g1137"
           transform="translate(365.5967,186.7236)">
          <path
             d="M 0,0 C 40.935,4.632 77.535,19.652 83.418,37.956 80.47,-6.978 67.066,-42.315 43.392,-68.221 c -22.069,-1.078 -38.351,8.203 -53.47,19.563 16.272,-5.642 29.54,-3.886 40.169,4.365 4.406,3.422 6.525,8.507 5.852,14.045 -0.672,5.539 -3.947,9.968 -9.044,12.235 -9.832,4.372 -18.697,10.572 -26.904,18.01 z"
             style="fill:#e0231d;fill-opacity:1;fill-rule:evenodd;stroke:none"
             id="path1139" />
        </g>
        <g
           id="g1141"
           transform="translate(323.2876,130.1211)">
          <path
             d="M 0,0 C 18.383,0 33.374,14.993 33.374,33.375 33.374,51.757 18.383,66.75 0,66.75 -18.382,66.75 -33.375,51.757 -33.375,33.375 -33.375,14.993 -18.382,0 0,0"
             style="fill:#f2322a;fill-opacity:1;fill-rule:evenodd;stroke:none"
             id="path1143" />
        </g>
        <g
           id="g1145"
           transform="translate(317.5435,193.2861)">
          <path
             d="M 0,0 C 11.92,0 20.353,-9.662 18.836,-21.584 17.319,-33.503 6.425,-43.168 -5.496,-43.168 c -11.92,0 -20.353,9.665 -18.835,21.584 C -22.815,-9.662 -11.921,0 0,0"
             style="fill:#fa504b;fill-opacity:1;fill-rule:evenodd;stroke:none"
             id="path1147" />
        </g>
        <g
           id="g1149"
           transform="translate(138.8389,295.0352)">
          <path
             d="m 0,0 c 2.758,-8.854 5.883,-17.705 10.494,-25.781 l 0.919,-1.422 c 1.311,-1.892 1.953,-2.588 4.02,-3.467 9.913,-1.252 21.362,16.183 28.253,22.69 4.001,3.778 13.05,13.288 19.032,10.261 3.8,-1.922 7.473,-5.741 4.362,-10.045 -2.997,-4.143 -5.97,-7.286 -8.989,-11.788 -4.702,-7.014 -9.32,-14.348 -13.779,-21.526 -1.343,-2.166 -2.695,-4.318 -4.071,-6.464 -4.646,-7.24 -9.792,-15.471 -14.011,-22.937 -6.335,-11.21 -7.847,-27.745 -5.814,-40.352 -25.164,-18.5 -51.028,-21.861 -77.49,-12.283 h -0.001 c 3.846,6.732 6.904,13.556 8.172,17.611 3.369,10.772 4.468,25.347 -1.951,35.211 -14.016,19.517 -15.019,25.341 -35.91,40.532 -7.199,5.235 -26.986,18.099 -27.91,27.196 0.574,5.666 10.539,3.021 14.018,0.557 7.761,-6.074 7.367,-8.303 17.756,-13.333 2.484,-1.204 22.273,-11.638 23.521,-8.545 1.395,3.455 -14.724,18.505 -17.318,21.916 l -2.592,3.408 c -3.593,5.093 -6.519,9.06 -10.256,14.058 -4.414,5.905 -8.872,12.338 -2.261,18.159 2.147,1.509 3.517,1.303 5.808,0.623 4.541,-2.282 9.835,-12.57 14.518,-17.346 2.651,-2.705 25.26,-25.042 27.8,-23.395 1.397,3.635 -7.668,24.584 -9.322,29.057 -3.817,10.376 -4.978,13.214 -10.346,22.959 -7.097,12.886 2.991,16.733 9.138,9.878 6.261,-6.982 9.474,-22.81 14.296,-32.585 8.395,-17.021 19.987,-29.635 15.829,0.131 -1.465,10.481 -2.238,16.917 -4.884,27.211 -1.426,5.553 -2.773,14.779 5.678,14.886 9.083,0.116 10.529,-22.461 12.399,-29.831 C -8.46,25.66 -4.691,15.6 -1.816,5.983 -1.227,3.981 -0.617,1.994 0,0"
             style="fill:#ffffff;fill-opacity:1;fill-rule:evenodd;stroke:none"
             id="path1151" />
        </g>
      </g>
    </g>
  </g>
</svg>
